<mxfile modified="2022-08-11T14:10:14.149Z" host="app.diagrams.net" agent="5.0 (Windows NT 10.0; Win64; x64) AppleWebKit/537.36 (KHTML, like Gecko) Chrome/104.0.0.0 Safari/537.36" etag="roywaZ9IZnL-FsGTLE72" version="20.2.3" type="github">
  <diagram id="f106602c-feb2-e66a-4537-3a34d633f6aa" name="Page-1">
    <mxGraphModel dx="2570" dy="762" grid="0" gridSize="10" guides="1" tooltips="1" connect="1" arrows="1" fold="1" page="1" pageScale="1" pageWidth="1169" pageHeight="827" background="none" math="0" shadow="0">
      <root>
        <mxCell id="0" />
        <mxCell id="1" parent="0" />
        <mxCell id="14" value="&lt;b&gt;Google &lt;/b&gt;Cloud Platform" style="fillColor=#F6F6F6;strokeColor=none;shadow=0;gradientColor=none;fontSize=14;align=left;spacing=10;fontColor=#717171;9E9E9E;verticalAlign=top;spacingTop=-4;fontStyle=0;spacingLeft=40;html=1;container=0;" parent="1" vertex="1">
          <mxGeometry x="143" y="106" width="882" height="744" as="geometry" />
        </mxCell>
        <mxCell id="9zoIfcFEyp8NO1G4hL9q-1047" style="edgeStyle=orthogonalEdgeStyle;rounded=0;orthogonalLoop=1;jettySize=auto;html=1;entryX=0;entryY=0.5;entryDx=0;entryDy=0;strokeColor=#4284F3;strokeWidth=2;" edge="1" parent="1" source="997" target="9zoIfcFEyp8NO1G4hL9q-1059">
          <mxGeometry relative="1" as="geometry" />
        </mxCell>
        <mxCell id="9zoIfcFEyp8NO1G4hL9q-1049" value="customapi.com" style="edgeLabel;html=1;align=center;verticalAlign=middle;resizable=0;points=[];" vertex="1" connectable="0" parent="9zoIfcFEyp8NO1G4hL9q-1047">
          <mxGeometry x="-0.1692" y="1" relative="1" as="geometry">
            <mxPoint as="offset" />
          </mxGeometry>
        </mxCell>
        <mxCell id="818" value="Architecture: Google Cloud API Gateway" style="fillColor=#4DA1F5;strokeColor=none;shadow=1;gradientColor=none;fontSize=14;align=left;spacingLeft=50;fontColor=#ffffff;html=1;" parent="1" vertex="1">
          <mxGeometry x="144" y="51" width="882" height="40" as="geometry" />
        </mxCell>
        <mxCell id="15" value="" style="shape=mxgraph.gcp2.google_cloud_platform;fillColor=#F6F6F6;strokeColor=none;shadow=0;gradientColor=none;" parent="1" vertex="1">
          <mxGeometry x="165" y="114" width="23" height="20" as="geometry">
            <mxPoint x="20" y="10" as="offset" />
          </mxGeometry>
        </mxCell>
        <mxCell id="9zoIfcFEyp8NO1G4hL9q-1022" value="" style="group;fontStyle=0" vertex="1" connectable="0" parent="1">
          <mxGeometry x="549" y="167" width="428" height="314" as="geometry" />
        </mxCell>
        <mxCell id="9zoIfcFEyp8NO1G4hL9q-1020" value="&lt;b&gt;europe-west1&lt;/b&gt;" style="sketch=0;points=[[0,0,0],[0.25,0,0],[0.5,0,0],[0.75,0,0],[1,0,0],[1,0.25,0],[1,0.5,0],[1,0.75,0],[1,1,0],[0.75,1,0],[0.5,1,0],[0.25,1,0],[0,1,0],[0,0.75,0],[0,0.5,0],[0,0.25,0]];rounded=1;absoluteArcSize=1;arcSize=2;html=1;strokeColor=none;gradientColor=none;shadow=0;dashed=0;fontSize=12;fontColor=#9E9E9E;align=left;verticalAlign=top;spacing=10;spacingTop=-4;" vertex="1" parent="9zoIfcFEyp8NO1G4hL9q-1022">
          <mxGeometry width="428" height="314" as="geometry" />
        </mxCell>
        <mxCell id="9zoIfcFEyp8NO1G4hL9q-1005" value="" style="whiteSpace=wrap;html=1;strokeColor=#00FF00;fillColor=#00FF00;" vertex="1" parent="9zoIfcFEyp8NO1G4hL9q-1022">
          <mxGeometry x="43" y="115.75" width="150" height="74" as="geometry" />
        </mxCell>
        <mxCell id="9zoIfcFEyp8NO1G4hL9q-1006" value="" style="shape=image;imageAspect=0;aspect=fixed;verticalLabelPosition=bottom;verticalAlign=top;image=data:image/png,iVBORw0KGgoAAAANSUhEUgAAAOEAAADhCAMAAAAJbSJIAAAAh1BMVEX///9ChfQzfvMqevP6+//B0/tTj/Xy9/72+v/S4fy70PstfPM8gvTm7f04gPT7/f/E1/uevPnc5v3O3fxFiPSDq/fu9P61zPrX4/zh6v19pve80fvp8P6Ir/hclPVwn/aqxPmQtPitx/pomvahv/kZdfN2ovZXkvVrnPYhd/MHcfPK2vyOs/hjxxI+AAAIP0lEQVR4nO2da3eiOhSGJShgieAFb63X0bHt2P//+45tV3vMGwIRAklYeb7Kmtm7CWHf0+s5HA6Hw+FwOBwOh8PhcFQiDaNUtwyNsT5vn3fU97P9drLWLYx6opc3Qiil3g1KE3IZ6pZILeGWki/lfqEkmOmWSiFjUO9bx/eJbrlUEc19Xr9PyD7ULZsShlmSr+BtGYMunDjDvB36q6K30C1fbaYF+n2tYl+3hDXZ0GINPXrSLWI9FlmJgrfjZqtbyDqkQamCnhc/6RazBmdSruBto9r7zRhJKejRZ92CVubE71FKCK82GeuWtCJLThea7J+uS+54pYGdDtWCX8Bg9fnDiDt/yFK3sJXgjplkH33/wuue2biIUYYruPtVYxrjIh40SloV7i28/yjw62vhIgaggz+4+zHdwauY/NEmaFWusBGTPfPzCjwqGmiSszq4SN6G/X0LvxPbYhpTWKMEIxYbWGPrDBs8SugGn5jjInJPmA0YbHTOPbGA4A23ymazhiX0R/wz+CbaddYcWA3pPueZFbyJ/rR1MWsAm5S85D0Ex61V23QD71i+j/uEp1HbYtYAN2n+lyBiFbTqk3iBTSrwcOGDQT/albIOcIZkgkDMGJZ6166UNVhLnKRfoO1qTYwfHCci9Bvgk0gGogdN4xkEX4kenMFi85aPoYBrmAgfjEDDV0v84DUckRfxo3Do+pZY3wM/uccvcN8nrJNlS8xtMGE4FiwM2KaJ1VmaXEIIyBHdAqnnDV7EHC/LcsCCteVFfIAhfC8Kzl1bYd9DL9Mtj3r24AZb5ehLcYAv4lW3QMpZwxfxrFsg9bABjy4eNa/Mi2h7eU0e4CNm9peBIWf2qPGt8fOlAS/Y2roMMZCEsiouLEfIGjX2RDLkYd0L+qpbHvVA3CrWVnAahcpg401gt8V6XMTZNiHK+MvqgIdpbp6qaSbvEnWi0sAqTVkNtRymz3JVlBU1hOIpHSULA7UKcm8aa5nqyHar1Y/XEJMArSuICV3lGmJYuHUNXxRvUk5DTFW1XvbNl/oq1hDec9K6d9H4Lr3q9i7Sptdwrf2TL9c1UV3DUH/c+yRsr1OiYU+/UbO4xA1abb0e+wfUU4e53MWxMsv7H2rIZsV1FZ30p0NVzCL4t58LfeC0nNb+ClU5gmHKSjz755cSbM2uGIOAIoRM19ickQf1j7gzTALSpJB/GslZHMTkaDnUt8VshRHfQyRQ8aBHehlgH0IVZoS9KUIVzd2nUNSOOcScNsZcYnOzqyGsIZjeb5IaGrxNI9AQTO+9pIYGJwRQQzC9L7JraG5Spw/vIRTCYXeNiHdzU4+gIebyj3IamlwUlxYn2M5SzhsVVZObQAqyQs3+HxkPnARGl8SxUe8EUojL91KHLM6Oj6as0n6DcP/bK7uG4AKPxqU8un7h+Tkr91gqw3nA0AHVvJM/y4rGAtWHzxC+tavhVWlQRkrDfasayjorKjWEMEbDlV9H1QHgxzUUdhGpQdaSV6kha5fRt0YVjGSiIqo13LZZvReqzsMYpyHmnFvRsNVdijnnVjRs96RZ6T9Lm64TnjR91uj+4vfSY8OHDa/hqWW79NMwbZK/2i3vG+lw0BwvXOQW0mugYT+MBPyUApobCv4BPGAIuOCIEJ7s8iHsNTaCFNpqj+zPl/I4DU2IucHSG/3iSJRcRJiY3IuC0cQD+7NkzDs2uHexJCIsm5lJzB3Y2y+M6qeylrJFuSc2M4Pd0EIMzj0tCrNrG1lD2eDc06YwQypVqZDzlzGJaWGWW9rZ8c3NPRVXKsiWmScGT+3DsVJsCa1c6sns3FNxxdCH1MciyUy+EqS46usiUTNIPQUtb6nIhXkc/KfZRD1W7s3K/bFx/W/95nzZBarI0AOGphkd1ZfLz0twpN53GbgBJvqnRX2ojU2ZVwU963wle/kdFfU0hPa89qe2Kc9koIZg0rQ//OPadldQ62UjUuUsdTSE/6D9MtGR6ii/cd15adMa4rTT1jVUntkv7pLVMXJA6saf6hpCHEbL2Ih1oHQVS7rV9cxROqrMRkHuCRssNY1p7U/HT6pYss44juCxZMLnAxgz+aMxIAFsz0BoWUIYute9CTzQuGVw4LoqeJSa3UhYBbBK4+5NM9tCsNTguG5FoA7D5D7JisBkSIOTDxWBzJLBWc6qdH9CK16bZG4uviJ9j6V7k5Ktvf9BmrOdVwc8ALyGceecQ65BR7dAkkxZCtZlyEYqbbkPKfX8+A6/wBDDYLCWqZAVkL5nhrv8wdyKGBa85EhYvwsFbfZEMDBdJrxoBi/tMrjfHAB/QdgDA7MEDC5MQy6FBTL/886+sNTohnMGnPUoMKchNWrPa8gPnDnkPwZLbVWY7STTjIYGjfjMNRA0qHO/c5g+t8pzwnGWefkkrFC3apOi9Lmh+iHelmtXpBSKQuOcRyDnZNtA/fJbK3DQnG1RNhw5w5+mOP2J2mJ1/4B7EJ1EvLnbvqzaS0n9AS6hVR/DL6CnEG1TLJazyWL7AW3Tw/2PXIkOedIkZh12BWE0rszKplvHf8Fg790+HGPJqpVLyFfk/Xrwa6wioxpufFABlm0mu++2lhVXVh3bEmNDPqBjiZJscljyUylsPEi/ifieLJrkzBEjJrcsFSNXQG3ySMcyJCtTzZ84LmYsUUEd253YnpfuU7PHPUhwLFlFYn95SfFp04kKoZknPm5o0Il62ZGwNYzsOpLVXpzyd6o/t/k7wTLPmRhKu1V4cT55cXKvZZJculb+tFhNLtT/skqTm3F6tCeT9gj99WFO4mB7XnavTtbhcDgcDofD4XA4HA5Hk/wHVP6M660ck+cAAAAASUVORK5CYII=;" vertex="1" parent="9zoIfcFEyp8NO1G4hL9q-1022">
          <mxGeometry x="51" y="117.75" width="64" height="64" as="geometry" />
        </mxCell>
        <mxCell id="9zoIfcFEyp8NO1G4hL9q-1007" value="" style="strokeColor=#dddddd;shadow=1;strokeWidth=1;rounded=1;absoluteArcSize=1;arcSize=2;fillColor=#00FF00;" vertex="1" parent="9zoIfcFEyp8NO1G4hL9q-1022">
          <mxGeometry x="260" y="25.75" width="130" height="60" as="geometry" />
        </mxCell>
        <mxCell id="9zoIfcFEyp8NO1G4hL9q-1008" value="Cloud&#xa;Functions" style="editableCssRules=.*;fontColor=#999999;shape=image;verticalLabelPosition=middle;labelBackgroundColor=#ffffff;verticalAlign=middle;labelPosition=right;align=left;spacingLeft=20;part=1;points=[];imageAspect=0;image=data:image/svg+xml,PHN2ZyB4bWxucz0iaHR0cDovL3d3dy53My5vcmcvMjAwMC9zdmciIHhtbG5zOnY9Imh0dHBzOi8vdmVjdGEuaW8vbmFubyIgd2lkdGg9IjIwIiBoZWlnaHQ9IjE5Ljk4OTk5OTc3MTExODE2NCIgdmlld0JveD0iMCAwIDIwIDE5Ljk4OTk5OTc3MTExODE2NCI+JiN4YTsJPHN0eWxlIHR5cGU9InRleHQvY3NzIj4mI3hhOwkuc3Qwe2ZpbGw6IzQyODVmNDt9JiN4YTsJLnN0MXtmaWxsOiM2NjlkZjY7fSYjeGE7CS5zdDJ7ZmlsbDojYWVjYmZhO30mI3hhOwk8L3N0eWxlPiYjeGE7CTxwYXRoIGNsYXNzPSJzdDEiIGQ9Ik0zIDMuOTlMMCA2LjQydjcuMTNsMyAyLjQ0eiIvPiYjeGE7CTxwYXRoIGNsYXNzPSJzdDAiIGQ9Ik0zIDMuOTlsLTMgNCAzLTJ6bS0zIDhsMyA0di0yeiIvPiYjeGE7CTxwYXRoIGNsYXNzPSJzdDIiIGQ9Ik0wIDE1Ljk5bDQgNCAyLTItNi02em0uMDEtOEw1Ljk5IDJsLTItMkwwIDMuOTl6Ii8+JiN4YTsJPHBhdGggY2xhc3M9InN0MSIgZD0iTTE3IDE2bDMtMi40MlY2LjQ0TDE3IDR6Ii8+JiN4YTsJPHBhdGggY2xhc3M9InN0MCIgZD0iTTE3IDE2bDMtNC0zIDJ6bTMtOGwtMy00djJ6Ii8+JiN4YTsJPGcgY2xhc3M9InN0MiI+JiN4YTsJCTxwYXRoIGQ9Ik0yMCA0bC00LTQtMiAyIDYgNnptLS4wMSA4bC01Ljk4IDUuOTkgMiAyTDIwIDE2eiIvPiYjeGE7CQk8Y2lyY2xlIGN4PSI2IiBjeT0iOS45OSIgcj0iMSIvPiYjeGE7CQk8Y2lyY2xlIGN4PSIxMCIgY3k9IjkuOTkiIHI9IjEiLz4mI3hhOwkJPGNpcmNsZSBjeD0iMTMuOTkiIGN5PSI5Ljk5IiByPSIxIi8+JiN4YTsJPC9nPiYjeGE7PC9zdmc+;" vertex="1" parent="9zoIfcFEyp8NO1G4hL9q-1007">
          <mxGeometry width="30" height="24" relative="1" as="geometry">
            <mxPoint x="15" y="18" as="offset" />
          </mxGeometry>
        </mxCell>
        <mxCell id="9zoIfcFEyp8NO1G4hL9q-1012" value="API Gateway" style="text;html=1;resizable=0;autosize=1;align=center;verticalAlign=middle;points=[];fillColor=none;strokeColor=none;rounded=0;" vertex="1" parent="9zoIfcFEyp8NO1G4hL9q-1022">
          <mxGeometry x="110" y="134.75" width="90" height="30" as="geometry" />
        </mxCell>
        <mxCell id="9zoIfcFEyp8NO1G4hL9q-1013" value="" style="strokeColor=#dddddd;shadow=1;strokeWidth=1;rounded=1;absoluteArcSize=1;arcSize=2;" vertex="1" parent="9zoIfcFEyp8NO1G4hL9q-1022">
          <mxGeometry x="260" y="119.75" width="130" height="60" as="geometry" />
        </mxCell>
        <mxCell id="9zoIfcFEyp8NO1G4hL9q-1014" value="Cloud Run" style="editableCssRules=.*;fontColor=#999999;shape=image;verticalLabelPosition=middle;labelBackgroundColor=#ffffff;verticalAlign=middle;labelPosition=right;align=left;spacingLeft=20;part=1;points=[];imageAspect=0;image=data:image/svg+xml,PHN2ZyB4bWxucz0iaHR0cDovL3d3dy53My5vcmcvMjAwMC9zdmciIHhtbG5zOnY9Imh0dHBzOi8vdmVjdGEuaW8vbmFubyIgd2lkdGg9IjM2NS40NjQ5OTY3NzA0MjQ5MyIgaGVpZ2h0PSIzNzkuMjIyOTk0NDYzNTc3OTUiIHZpZXdCb3g9IjAgMCA5Ni42OTU5OTkxNDU1MDc4MSAxMDAuMzM1OTk4NTM1MTU2MjUiPiYjeGE7PHN0eWxlIHR5cGU9InRleHQvY3NzIj4mI3hhOwkuc3Qwe2ZpbGw6IzQyODVmNDt9JiN4YTsJLnN0MXtmaWxsOiNhZWNiZmE7fSYjeGE7PC9zdHlsZT4mI3hhOwk8cGF0aCBjbGFzcz0ic3QwIiBkPSJNMjkuNzk0IDEwMC4zMzZMNDYuOTIgNTAuMTY4aDQ5Ljc3NnpNMCA5OS42NzFsMTIuOTc2LTQ5LjUwMkgyOS4yMkwxNi44OTcgOTIuMDU0eiIvPiYjeGE7CTxwYXRoIGNsYXNzPSJzdDEiIGQ9Ik0yOS43OTQgMEw0Ni45MiA1MC4xNjhoNDkuNzc2ek0wIC42NjZsMTIuOTc2IDQ5LjUwMkgyOS4yMkwxNi44OTcgOC4yODN6Ii8+JiN4YTs8L3N2Zz4=;" vertex="1" parent="9zoIfcFEyp8NO1G4hL9q-1013">
          <mxGeometry width="30" height="30" relative="1" as="geometry">
            <mxPoint x="15" y="15" as="offset" />
          </mxGeometry>
        </mxCell>
        <mxCell id="9zoIfcFEyp8NO1G4hL9q-1009" style="edgeStyle=orthogonalEdgeStyle;rounded=0;orthogonalLoop=1;jettySize=auto;html=1;strokeColor=#4284F3;strokeWidth=2;" edge="1" parent="9zoIfcFEyp8NO1G4hL9q-1022" source="9zoIfcFEyp8NO1G4hL9q-1012" target="9zoIfcFEyp8NO1G4hL9q-1013">
          <mxGeometry relative="1" as="geometry" />
        </mxCell>
        <mxCell id="9zoIfcFEyp8NO1G4hL9q-1015" value="" style="strokeColor=#dddddd;shadow=1;strokeWidth=1;rounded=1;absoluteArcSize=1;arcSize=2;" vertex="1" parent="9zoIfcFEyp8NO1G4hL9q-1022">
          <mxGeometry x="265" y="228.25" width="120" height="60" as="geometry" />
        </mxCell>
        <mxCell id="9zoIfcFEyp8NO1G4hL9q-1016" value="App&#xa;Engine" style="editableCssRules=.*;fontColor=#999999;shape=image;verticalLabelPosition=middle;labelBackgroundColor=#ffffff;verticalAlign=middle;labelPosition=right;align=left;spacingLeft=20;part=1;points=[];imageAspect=0;image=data:image/svg+xml,PHN2ZyB4bWxucz0iaHR0cDovL3d3dy53My5vcmcvMjAwMC9zdmciIHhtbG5zOnY9Imh0dHBzOi8vdmVjdGEuaW8vbmFubyIgd2lkdGg9IjIwIiBoZWlnaHQ9IjE2LjAyMDAwMDQ1Nzc2MzY3MiIgZmlsbC1ydWxlPSJldmVub2RkIiB2aWV3Qm94PSI4Ljk0MDY5NjcxNjMwODU5NGUtOCAwIDIwIDE2LjAyMDAwMDQ1Nzc2MzY3MiI+JiN4YTsJPHN0eWxlIHR5cGU9InRleHQvY3NzIj4mI3hhOwkuc3Qwe2ZpbGw6IzQyODVmNDt9JiN4YTsJLnN0MXtmaWxsOiNhZWNiZmE7fSYjeGE7CS5zdDJ7ZmlsbDojNjY5ZGY2O30mI3hhOwk8L3N0eWxlPiYjeGE7CTxwYXRoIGNsYXNzPSJzdDAiIGQ9Ik0xMi4zIDcuMjZsLTEuMjIgMS4yMkExLjcxIDEuNzEgMCAwIDEgMTAgMTEuNDlhMS43NCAxLjc0IDAgMCAxLTEuMzMtLjY0bC0xLjIyIDEuMjJhMy40MyAzLjQzIDAgMCAwIDUuOTg0LTEuMzgxQTMuNDMgMy40MyAwIDAgMCAxMi4zIDcuMjZ6Ii8+JiN4YTsJPHBhdGggY2xhc3M9InN0MSIgZD0iTTEwIDMuNTJhNi4yNSA2LjI1IDAgMCAwIDAgMTIuNSA2LjI1IDYuMjUgMCAwIDAgMC0xMi41bTAgMTAuNzRhNC40NSA0LjQ1IDAgMCAxLTMuMTU3LTcuNTk3QTQuNDUgNC40NSAwIDAgMSAxNC40NCA5LjgyIDQuNDQgNC40NCAwIDAgMSAxMCAxNC4yNiIvPiYjeGE7CTxwYXRoIGNsYXNzPSJzdDIiIGQ9Ik0xOS42MiA5LjE2bC0yLjU2LS44MWE3LjEgNy4xIDAgMCAxIC4xNyAxLjUzIDcuNjIgNy42MiAwIDAgMS0uMDggMS4wOGgyLjQ3YS40NC40NCAwIDAgMCAuMzgtLjQydi0xYS40NC40NCAwIDAgMC0uMzgtLjQyTTEwIDIuNzhhNy40OCA3LjQ4IDAgMCAxIDEuNS4xNUwxMC41OC4zOGMtLjA3LS4yMi0uMjEtLjM4LS40Mi0uMzhoLS4zOGEuNDUuNDUgMCAwIDAtLjQyLjM4bC0uOCAyLjU0QTcuNjQgNy42NCAwIDAgMSAxMCAyLjc4bS03LjIzIDcuMWE3LjEgNy4xIDAgMCAxIC4xNy0xLjUzbC0yLjU2LjgxYS40NC40NCAwIDAgMC0uMzguNDJ2MWEuNDQuNDQgMCAwIDAgLjM4LjQyaDIuNDdhNy42MiA3LjYyIDAgMCAxLS4wOC0xLjA4Ii8+JiN4YTsJPHBhdGggY2xhc3M9InN0MSIgZD0iTTEwIDcuMjZhMi41IDIuNSAwIDEgMCAwIDUgMi41IDIuNSAwIDEgMCAwLTV6bTAgMy43NWExLjI1IDEuMjUgMCAxIDEgMC0yLjUgMS4yNSAxLjI1IDAgMCAxIDEuMjUgMS4yNUExLjI1IDEuMjUgMCAwIDEgMTAgMTEuMDJ6Ii8+JiN4YTs8L3N2Zz4=;" vertex="1" parent="9zoIfcFEyp8NO1G4hL9q-1015">
          <mxGeometry width="30" height="24" relative="1" as="geometry">
            <mxPoint x="15" y="18" as="offset" />
          </mxGeometry>
        </mxCell>
        <mxCell id="9zoIfcFEyp8NO1G4hL9q-1011" style="edgeStyle=orthogonalEdgeStyle;rounded=0;orthogonalLoop=1;jettySize=auto;html=1;entryX=0;entryY=0.5;entryDx=0;entryDy=0;strokeColor=#4284F3;strokeWidth=2;" edge="1" parent="9zoIfcFEyp8NO1G4hL9q-1022" source="9zoIfcFEyp8NO1G4hL9q-1012" target="9zoIfcFEyp8NO1G4hL9q-1015">
          <mxGeometry relative="1" as="geometry">
            <Array as="points">
              <mxPoint x="221" y="150.75" />
              <mxPoint x="221" y="258.75" />
            </Array>
          </mxGeometry>
        </mxCell>
        <mxCell id="9zoIfcFEyp8NO1G4hL9q-1017" value="/users" style="text;html=1;strokeColor=none;fillColor=none;align=center;verticalAlign=middle;whiteSpace=wrap;rounded=0;" vertex="1" parent="9zoIfcFEyp8NO1G4hL9q-1022">
          <mxGeometry x="205" y="28.75" width="60" height="30" as="geometry" />
        </mxCell>
        <mxCell id="9zoIfcFEyp8NO1G4hL9q-1018" value="/roles" style="text;html=1;strokeColor=none;fillColor=none;align=center;verticalAlign=middle;whiteSpace=wrap;rounded=0;" vertex="1" parent="9zoIfcFEyp8NO1G4hL9q-1022">
          <mxGeometry x="207" y="115.75" width="60" height="30" as="geometry" />
        </mxCell>
        <mxCell id="9zoIfcFEyp8NO1G4hL9q-1019" value="/permissions" style="text;html=1;strokeColor=none;fillColor=none;align=center;verticalAlign=middle;whiteSpace=wrap;rounded=0;" vertex="1" parent="9zoIfcFEyp8NO1G4hL9q-1022">
          <mxGeometry x="228" y="204.75" width="60" height="30" as="geometry" />
        </mxCell>
        <mxCell id="9zoIfcFEyp8NO1G4hL9q-1010" style="edgeStyle=orthogonalEdgeStyle;rounded=0;orthogonalLoop=1;jettySize=auto;html=1;entryX=0;entryY=0.5;entryDx=0;entryDy=0;strokeColor=#00FF00;strokeWidth=2;" edge="1" parent="9zoIfcFEyp8NO1G4hL9q-1022" source="9zoIfcFEyp8NO1G4hL9q-1012" target="9zoIfcFEyp8NO1G4hL9q-1007">
          <mxGeometry relative="1" as="geometry">
            <Array as="points">
              <mxPoint x="219" y="150.75" />
              <mxPoint x="219" y="55.75" />
            </Array>
          </mxGeometry>
        </mxCell>
        <mxCell id="9zoIfcFEyp8NO1G4hL9q-1023" value="" style="group" vertex="1" connectable="0" parent="1">
          <mxGeometry x="551" y="505" width="428" height="314" as="geometry" />
        </mxCell>
        <mxCell id="9zoIfcFEyp8NO1G4hL9q-1024" value="&lt;b&gt;us-west2&lt;/b&gt;" style="sketch=0;points=[[0,0,0],[0.25,0,0],[0.5,0,0],[0.75,0,0],[1,0,0],[1,0.25,0],[1,0.5,0],[1,0.75,0],[1,1,0],[0.75,1,0],[0.5,1,0],[0.25,1,0],[0,1,0],[0,0.75,0],[0,0.5,0],[0,0.25,0]];rounded=1;absoluteArcSize=1;arcSize=2;html=1;strokeColor=none;gradientColor=none;shadow=0;dashed=0;fontSize=12;fontColor=#9E9E9E;align=left;verticalAlign=top;spacing=10;spacingTop=-4;" vertex="1" parent="9zoIfcFEyp8NO1G4hL9q-1023">
          <mxGeometry width="428" height="314" as="geometry" />
        </mxCell>
        <mxCell id="9zoIfcFEyp8NO1G4hL9q-1025" value="" style="whiteSpace=wrap;html=1;" vertex="1" parent="9zoIfcFEyp8NO1G4hL9q-1023">
          <mxGeometry x="43" y="115.75" width="150" height="74" as="geometry" />
        </mxCell>
        <mxCell id="9zoIfcFEyp8NO1G4hL9q-1026" value="" style="shape=image;imageAspect=0;aspect=fixed;verticalLabelPosition=bottom;verticalAlign=top;image=data:image/png,iVBORw0KGgoAAAANSUhEUgAAAOEAAADhCAMAAAAJbSJIAAAAh1BMVEX///9ChfQzfvMqevP6+//B0/tTj/Xy9/72+v/S4fy70PstfPM8gvTm7f04gPT7/f/E1/uevPnc5v3O3fxFiPSDq/fu9P61zPrX4/zh6v19pve80fvp8P6Ir/hclPVwn/aqxPmQtPitx/pomvahv/kZdfN2ovZXkvVrnPYhd/MHcfPK2vyOs/hjxxI+AAAIP0lEQVR4nO2da3eiOhSGJShgieAFb63X0bHt2P//+45tV3vMGwIRAklYeb7Kmtm7CWHf0+s5HA6Hw+FwOBwOh8PhcFQiDaNUtwyNsT5vn3fU97P9drLWLYx6opc3Qiil3g1KE3IZ6pZILeGWki/lfqEkmOmWSiFjUO9bx/eJbrlUEc19Xr9PyD7ULZsShlmSr+BtGYMunDjDvB36q6K30C1fbaYF+n2tYl+3hDXZ0GINPXrSLWI9FlmJgrfjZqtbyDqkQamCnhc/6RazBmdSruBto9r7zRhJKejRZ92CVubE71FKCK82GeuWtCJLThea7J+uS+54pYGdDtWCX8Bg9fnDiDt/yFK3sJXgjplkH33/wuue2biIUYYruPtVYxrjIh40SloV7i28/yjw62vhIgaggz+4+zHdwauY/NEmaFWusBGTPfPzCjwqGmiSszq4SN6G/X0LvxPbYhpTWKMEIxYbWGPrDBs8SugGn5jjInJPmA0YbHTOPbGA4A23ymazhiX0R/wz+CbaddYcWA3pPueZFbyJ/rR1MWsAm5S85D0Ex61V23QD71i+j/uEp1HbYtYAN2n+lyBiFbTqk3iBTSrwcOGDQT/albIOcIZkgkDMGJZ6166UNVhLnKRfoO1qTYwfHCci9Bvgk0gGogdN4xkEX4kenMFi85aPoYBrmAgfjEDDV0v84DUckRfxo3Do+pZY3wM/uccvcN8nrJNlS8xtMGE4FiwM2KaJ1VmaXEIIyBHdAqnnDV7EHC/LcsCCteVFfIAhfC8Kzl1bYd9DL9Mtj3r24AZb5ehLcYAv4lW3QMpZwxfxrFsg9bABjy4eNa/Mi2h7eU0e4CNm9peBIWf2qPGt8fOlAS/Y2roMMZCEsiouLEfIGjX2RDLkYd0L+qpbHvVA3CrWVnAahcpg401gt8V6XMTZNiHK+MvqgIdpbp6qaSbvEnWi0sAqTVkNtRymz3JVlBU1hOIpHSULA7UKcm8aa5nqyHar1Y/XEJMArSuICV3lGmJYuHUNXxRvUk5DTFW1XvbNl/oq1hDec9K6d9H4Lr3q9i7Sptdwrf2TL9c1UV3DUH/c+yRsr1OiYU+/UbO4xA1abb0e+wfUU4e53MWxMsv7H2rIZsV1FZ30p0NVzCL4t58LfeC0nNb+ClU5gmHKSjz755cSbM2uGIOAIoRM19ickQf1j7gzTALSpJB/GslZHMTkaDnUt8VshRHfQyRQ8aBHehlgH0IVZoS9KUIVzd2nUNSOOcScNsZcYnOzqyGsIZjeb5IaGrxNI9AQTO+9pIYGJwRQQzC9L7JraG5Spw/vIRTCYXeNiHdzU4+gIebyj3IamlwUlxYn2M5SzhsVVZObQAqyQs3+HxkPnARGl8SxUe8EUojL91KHLM6Oj6as0n6DcP/bK7uG4AKPxqU8un7h+Tkr91gqw3nA0AHVvJM/y4rGAtWHzxC+tavhVWlQRkrDfasayjorKjWEMEbDlV9H1QHgxzUUdhGpQdaSV6kha5fRt0YVjGSiIqo13LZZvReqzsMYpyHmnFvRsNVdijnnVjRs96RZ6T9Lm64TnjR91uj+4vfSY8OHDa/hqWW79NMwbZK/2i3vG+lw0BwvXOQW0mugYT+MBPyUApobCv4BPGAIuOCIEJ7s8iHsNTaCFNpqj+zPl/I4DU2IucHSG/3iSJRcRJiY3IuC0cQD+7NkzDs2uHexJCIsm5lJzB3Y2y+M6qeylrJFuSc2M4Pd0EIMzj0tCrNrG1lD2eDc06YwQypVqZDzlzGJaWGWW9rZ8c3NPRVXKsiWmScGT+3DsVJsCa1c6sns3FNxxdCH1MciyUy+EqS46usiUTNIPQUtb6nIhXkc/KfZRD1W7s3K/bFx/W/95nzZBarI0AOGphkd1ZfLz0twpN53GbgBJvqnRX2ojU2ZVwU963wle/kdFfU0hPa89qe2Kc9koIZg0rQ//OPadldQ62UjUuUsdTSE/6D9MtGR6ii/cd15adMa4rTT1jVUntkv7pLVMXJA6saf6hpCHEbL2Ih1oHQVS7rV9cxROqrMRkHuCRssNY1p7U/HT6pYss44juCxZMLnAxgz+aMxIAFsz0BoWUIYute9CTzQuGVw4LoqeJSa3UhYBbBK4+5NM9tCsNTguG5FoA7D5D7JisBkSIOTDxWBzJLBWc6qdH9CK16bZG4uviJ9j6V7k5Ktvf9BmrOdVwc8ALyGceecQ65BR7dAkkxZCtZlyEYqbbkPKfX8+A6/wBDDYLCWqZAVkL5nhrv8wdyKGBa85EhYvwsFbfZEMDBdJrxoBi/tMrjfHAB/QdgDA7MEDC5MQy6FBTL/886+sNTohnMGnPUoMKchNWrPa8gPnDnkPwZLbVWY7STTjIYGjfjMNRA0qHO/c5g+t8pzwnGWefkkrFC3apOi9Lmh+iHelmtXpBSKQuOcRyDnZNtA/fJbK3DQnG1RNhw5w5+mOP2J2mJ1/4B7EJ1EvLnbvqzaS0n9AS6hVR/DL6CnEG1TLJazyWL7AW3Tw/2PXIkOedIkZh12BWE0rszKplvHf8Fg790+HGPJqpVLyFfk/Xrwa6wioxpufFABlm0mu++2lhVXVh3bEmNDPqBjiZJscljyUylsPEi/ifieLJrkzBEjJrcsFSNXQG3ySMcyJCtTzZ84LmYsUUEd253YnpfuU7PHPUhwLFlFYn95SfFp04kKoZknPm5o0Il62ZGwNYzsOpLVXpzyd6o/t/k7wTLPmRhKu1V4cT55cXKvZZJculb+tFhNLtT/skqTm3F6tCeT9gj99WFO4mB7XnavTtbhcDgcDofD4XA4HA5Hk/wHVP6M660ck+cAAAAASUVORK5CYII=;" vertex="1" parent="9zoIfcFEyp8NO1G4hL9q-1023">
          <mxGeometry x="51" y="117.75" width="64" height="64" as="geometry" />
        </mxCell>
        <mxCell id="9zoIfcFEyp8NO1G4hL9q-1027" value="" style="strokeColor=#dddddd;shadow=1;strokeWidth=1;rounded=1;absoluteArcSize=1;arcSize=2;" vertex="1" parent="9zoIfcFEyp8NO1G4hL9q-1023">
          <mxGeometry x="260" y="25.75" width="130" height="60" as="geometry" />
        </mxCell>
        <mxCell id="9zoIfcFEyp8NO1G4hL9q-1028" value="Cloud&#xa;Functions" style="editableCssRules=.*;fontColor=#999999;shape=image;verticalLabelPosition=middle;labelBackgroundColor=#ffffff;verticalAlign=middle;labelPosition=right;align=left;spacingLeft=20;part=1;points=[];imageAspect=0;image=data:image/svg+xml,PHN2ZyB4bWxucz0iaHR0cDovL3d3dy53My5vcmcvMjAwMC9zdmciIHhtbG5zOnY9Imh0dHBzOi8vdmVjdGEuaW8vbmFubyIgd2lkdGg9IjIwIiBoZWlnaHQ9IjE5Ljk4OTk5OTc3MTExODE2NCIgdmlld0JveD0iMCAwIDIwIDE5Ljk4OTk5OTc3MTExODE2NCI+JiN4YTsJPHN0eWxlIHR5cGU9InRleHQvY3NzIj4mI3hhOwkuc3Qwe2ZpbGw6IzQyODVmNDt9JiN4YTsJLnN0MXtmaWxsOiM2NjlkZjY7fSYjeGE7CS5zdDJ7ZmlsbDojYWVjYmZhO30mI3hhOwk8L3N0eWxlPiYjeGE7CTxwYXRoIGNsYXNzPSJzdDEiIGQ9Ik0zIDMuOTlMMCA2LjQydjcuMTNsMyAyLjQ0eiIvPiYjeGE7CTxwYXRoIGNsYXNzPSJzdDAiIGQ9Ik0zIDMuOTlsLTMgNCAzLTJ6bS0zIDhsMyA0di0yeiIvPiYjeGE7CTxwYXRoIGNsYXNzPSJzdDIiIGQ9Ik0wIDE1Ljk5bDQgNCAyLTItNi02em0uMDEtOEw1Ljk5IDJsLTItMkwwIDMuOTl6Ii8+JiN4YTsJPHBhdGggY2xhc3M9InN0MSIgZD0iTTE3IDE2bDMtMi40MlY2LjQ0TDE3IDR6Ii8+JiN4YTsJPHBhdGggY2xhc3M9InN0MCIgZD0iTTE3IDE2bDMtNC0zIDJ6bTMtOGwtMy00djJ6Ii8+JiN4YTsJPGcgY2xhc3M9InN0MiI+JiN4YTsJCTxwYXRoIGQ9Ik0yMCA0bC00LTQtMiAyIDYgNnptLS4wMSA4bC01Ljk4IDUuOTkgMiAyTDIwIDE2eiIvPiYjeGE7CQk8Y2lyY2xlIGN4PSI2IiBjeT0iOS45OSIgcj0iMSIvPiYjeGE7CQk8Y2lyY2xlIGN4PSIxMCIgY3k9IjkuOTkiIHI9IjEiLz4mI3hhOwkJPGNpcmNsZSBjeD0iMTMuOTkiIGN5PSI5Ljk5IiByPSIxIi8+JiN4YTsJPC9nPiYjeGE7PC9zdmc+;" vertex="1" parent="9zoIfcFEyp8NO1G4hL9q-1027">
          <mxGeometry width="30" height="24" relative="1" as="geometry">
            <mxPoint x="15" y="18" as="offset" />
          </mxGeometry>
        </mxCell>
        <mxCell id="9zoIfcFEyp8NO1G4hL9q-1029" style="edgeStyle=orthogonalEdgeStyle;rounded=0;orthogonalLoop=1;jettySize=auto;html=1;entryX=0;entryY=0.5;entryDx=0;entryDy=0;strokeColor=#4284F3;strokeWidth=2;" edge="1" parent="9zoIfcFEyp8NO1G4hL9q-1023" source="9zoIfcFEyp8NO1G4hL9q-1030" target="9zoIfcFEyp8NO1G4hL9q-1027">
          <mxGeometry relative="1" as="geometry">
            <Array as="points">
              <mxPoint x="219" y="150.75" />
              <mxPoint x="219" y="55.75" />
            </Array>
          </mxGeometry>
        </mxCell>
        <mxCell id="9zoIfcFEyp8NO1G4hL9q-1030" value="API Gateway" style="text;html=1;resizable=0;autosize=1;align=center;verticalAlign=middle;points=[];fillColor=none;strokeColor=none;rounded=0;" vertex="1" parent="9zoIfcFEyp8NO1G4hL9q-1023">
          <mxGeometry x="110" y="134.75" width="90" height="30" as="geometry" />
        </mxCell>
        <mxCell id="9zoIfcFEyp8NO1G4hL9q-1031" value="" style="strokeColor=#dddddd;shadow=1;strokeWidth=1;rounded=1;absoluteArcSize=1;arcSize=2;" vertex="1" parent="9zoIfcFEyp8NO1G4hL9q-1023">
          <mxGeometry x="260" y="119.75" width="130" height="60" as="geometry" />
        </mxCell>
        <mxCell id="9zoIfcFEyp8NO1G4hL9q-1032" value="Cloud Run" style="editableCssRules=.*;fontColor=#999999;shape=image;verticalLabelPosition=middle;labelBackgroundColor=#ffffff;verticalAlign=middle;labelPosition=right;align=left;spacingLeft=20;part=1;points=[];imageAspect=0;image=data:image/svg+xml,PHN2ZyB4bWxucz0iaHR0cDovL3d3dy53My5vcmcvMjAwMC9zdmciIHhtbG5zOnY9Imh0dHBzOi8vdmVjdGEuaW8vbmFubyIgd2lkdGg9IjM2NS40NjQ5OTY3NzA0MjQ5MyIgaGVpZ2h0PSIzNzkuMjIyOTk0NDYzNTc3OTUiIHZpZXdCb3g9IjAgMCA5Ni42OTU5OTkxNDU1MDc4MSAxMDAuMzM1OTk4NTM1MTU2MjUiPiYjeGE7PHN0eWxlIHR5cGU9InRleHQvY3NzIj4mI3hhOwkuc3Qwe2ZpbGw6IzQyODVmNDt9JiN4YTsJLnN0MXtmaWxsOiNhZWNiZmE7fSYjeGE7PC9zdHlsZT4mI3hhOwk8cGF0aCBjbGFzcz0ic3QwIiBkPSJNMjkuNzk0IDEwMC4zMzZMNDYuOTIgNTAuMTY4aDQ5Ljc3NnpNMCA5OS42NzFsMTIuOTc2LTQ5LjUwMkgyOS4yMkwxNi44OTcgOTIuMDU0eiIvPiYjeGE7CTxwYXRoIGNsYXNzPSJzdDEiIGQ9Ik0yOS43OTQgMEw0Ni45MiA1MC4xNjhoNDkuNzc2ek0wIC42NjZsMTIuOTc2IDQ5LjUwMkgyOS4yMkwxNi44OTcgOC4yODN6Ii8+JiN4YTs8L3N2Zz4=;" vertex="1" parent="9zoIfcFEyp8NO1G4hL9q-1031">
          <mxGeometry width="30" height="30" relative="1" as="geometry">
            <mxPoint x="15" y="15" as="offset" />
          </mxGeometry>
        </mxCell>
        <mxCell id="9zoIfcFEyp8NO1G4hL9q-1033" style="edgeStyle=orthogonalEdgeStyle;rounded=0;orthogonalLoop=1;jettySize=auto;html=1;strokeColor=#4284F3;strokeWidth=2;" edge="1" parent="9zoIfcFEyp8NO1G4hL9q-1023" source="9zoIfcFEyp8NO1G4hL9q-1030" target="9zoIfcFEyp8NO1G4hL9q-1031">
          <mxGeometry relative="1" as="geometry" />
        </mxCell>
        <mxCell id="9zoIfcFEyp8NO1G4hL9q-1034" value="" style="strokeColor=#dddddd;shadow=1;strokeWidth=1;rounded=1;absoluteArcSize=1;arcSize=2;" vertex="1" parent="9zoIfcFEyp8NO1G4hL9q-1023">
          <mxGeometry x="265" y="228.25" width="120" height="60" as="geometry" />
        </mxCell>
        <mxCell id="9zoIfcFEyp8NO1G4hL9q-1035" value="App&#xa;Engine" style="editableCssRules=.*;fontColor=#999999;shape=image;verticalLabelPosition=middle;labelBackgroundColor=#ffffff;verticalAlign=middle;labelPosition=right;align=left;spacingLeft=20;part=1;points=[];imageAspect=0;image=data:image/svg+xml,PHN2ZyB4bWxucz0iaHR0cDovL3d3dy53My5vcmcvMjAwMC9zdmciIHhtbG5zOnY9Imh0dHBzOi8vdmVjdGEuaW8vbmFubyIgd2lkdGg9IjIwIiBoZWlnaHQ9IjE2LjAyMDAwMDQ1Nzc2MzY3MiIgZmlsbC1ydWxlPSJldmVub2RkIiB2aWV3Qm94PSI4Ljk0MDY5NjcxNjMwODU5NGUtOCAwIDIwIDE2LjAyMDAwMDQ1Nzc2MzY3MiI+JiN4YTsJPHN0eWxlIHR5cGU9InRleHQvY3NzIj4mI3hhOwkuc3Qwe2ZpbGw6IzQyODVmNDt9JiN4YTsJLnN0MXtmaWxsOiNhZWNiZmE7fSYjeGE7CS5zdDJ7ZmlsbDojNjY5ZGY2O30mI3hhOwk8L3N0eWxlPiYjeGE7CTxwYXRoIGNsYXNzPSJzdDAiIGQ9Ik0xMi4zIDcuMjZsLTEuMjIgMS4yMkExLjcxIDEuNzEgMCAwIDEgMTAgMTEuNDlhMS43NCAxLjc0IDAgMCAxLTEuMzMtLjY0bC0xLjIyIDEuMjJhMy40MyAzLjQzIDAgMCAwIDUuOTg0LTEuMzgxQTMuNDMgMy40MyAwIDAgMCAxMi4zIDcuMjZ6Ii8+JiN4YTsJPHBhdGggY2xhc3M9InN0MSIgZD0iTTEwIDMuNTJhNi4yNSA2LjI1IDAgMCAwIDAgMTIuNSA2LjI1IDYuMjUgMCAwIDAgMC0xMi41bTAgMTAuNzRhNC40NSA0LjQ1IDAgMCAxLTMuMTU3LTcuNTk3QTQuNDUgNC40NSAwIDAgMSAxNC40NCA5LjgyIDQuNDQgNC40NCAwIDAgMSAxMCAxNC4yNiIvPiYjeGE7CTxwYXRoIGNsYXNzPSJzdDIiIGQ9Ik0xOS42MiA5LjE2bC0yLjU2LS44MWE3LjEgNy4xIDAgMCAxIC4xNyAxLjUzIDcuNjIgNy42MiAwIDAgMS0uMDggMS4wOGgyLjQ3YS40NC40NCAwIDAgMCAuMzgtLjQydi0xYS40NC40NCAwIDAgMC0uMzgtLjQyTTEwIDIuNzhhNy40OCA3LjQ4IDAgMCAxIDEuNS4xNUwxMC41OC4zOGMtLjA3LS4yMi0uMjEtLjM4LS40Mi0uMzhoLS4zOGEuNDUuNDUgMCAwIDAtLjQyLjM4bC0uOCAyLjU0QTcuNjQgNy42NCAwIDAgMSAxMCAyLjc4bS03LjIzIDcuMWE3LjEgNy4xIDAgMCAxIC4xNy0xLjUzbC0yLjU2LjgxYS40NC40NCAwIDAgMC0uMzguNDJ2MWEuNDQuNDQgMCAwIDAgLjM4LjQyaDIuNDdhNy42MiA3LjYyIDAgMCAxLS4wOC0xLjA4Ii8+JiN4YTsJPHBhdGggY2xhc3M9InN0MSIgZD0iTTEwIDcuMjZhMi41IDIuNSAwIDEgMCAwIDUgMi41IDIuNSAwIDEgMCAwLTV6bTAgMy43NWExLjI1IDEuMjUgMCAxIDEgMC0yLjUgMS4yNSAxLjI1IDAgMCAxIDEuMjUgMS4yNUExLjI1IDEuMjUgMCAwIDEgMTAgMTEuMDJ6Ii8+JiN4YTs8L3N2Zz4=;" vertex="1" parent="9zoIfcFEyp8NO1G4hL9q-1034">
          <mxGeometry width="30" height="24" relative="1" as="geometry">
            <mxPoint x="15" y="18" as="offset" />
          </mxGeometry>
        </mxCell>
        <mxCell id="9zoIfcFEyp8NO1G4hL9q-1036" style="edgeStyle=orthogonalEdgeStyle;rounded=0;orthogonalLoop=1;jettySize=auto;html=1;entryX=0;entryY=0.5;entryDx=0;entryDy=0;strokeColor=#4284F3;strokeWidth=2;" edge="1" parent="9zoIfcFEyp8NO1G4hL9q-1023" source="9zoIfcFEyp8NO1G4hL9q-1030" target="9zoIfcFEyp8NO1G4hL9q-1034">
          <mxGeometry relative="1" as="geometry">
            <Array as="points">
              <mxPoint x="221" y="150.75" />
              <mxPoint x="221" y="258.75" />
            </Array>
          </mxGeometry>
        </mxCell>
        <mxCell id="9zoIfcFEyp8NO1G4hL9q-1037" value="/users" style="text;html=1;strokeColor=none;fillColor=none;align=center;verticalAlign=middle;whiteSpace=wrap;rounded=0;" vertex="1" parent="9zoIfcFEyp8NO1G4hL9q-1023">
          <mxGeometry x="205" y="28.75" width="60" height="30" as="geometry" />
        </mxCell>
        <mxCell id="9zoIfcFEyp8NO1G4hL9q-1038" value="/roles" style="text;html=1;strokeColor=none;fillColor=none;align=center;verticalAlign=middle;whiteSpace=wrap;rounded=0;" vertex="1" parent="9zoIfcFEyp8NO1G4hL9q-1023">
          <mxGeometry x="207" y="115.75" width="60" height="30" as="geometry" />
        </mxCell>
        <mxCell id="9zoIfcFEyp8NO1G4hL9q-1039" value="/permissions" style="text;html=1;strokeColor=none;fillColor=none;align=center;verticalAlign=middle;whiteSpace=wrap;rounded=0;" vertex="1" parent="9zoIfcFEyp8NO1G4hL9q-1023">
          <mxGeometry x="228" y="204.75" width="60" height="30" as="geometry" />
        </mxCell>
        <mxCell id="9zoIfcFEyp8NO1G4hL9q-1044" style="edgeStyle=orthogonalEdgeStyle;rounded=0;orthogonalLoop=1;jettySize=auto;html=1;exitX=1;exitY=0.25;exitDx=0;exitDy=0;entryX=0;entryY=0.5;entryDx=0;entryDy=0;strokeColor=#4284F3;strokeWidth=2;" edge="1" parent="1" source="9zoIfcFEyp8NO1G4hL9q-1040" target="9zoIfcFEyp8NO1G4hL9q-1005">
          <mxGeometry relative="1" as="geometry" />
        </mxCell>
        <mxCell id="9zoIfcFEyp8NO1G4hL9q-1045" style="edgeStyle=orthogonalEdgeStyle;rounded=0;orthogonalLoop=1;jettySize=auto;html=1;exitX=1;exitY=0.75;exitDx=0;exitDy=0;entryX=0;entryY=0.5;entryDx=0;entryDy=0;strokeColor=#4284F3;strokeWidth=2;" edge="1" parent="1" source="9zoIfcFEyp8NO1G4hL9q-1040" target="9zoIfcFEyp8NO1G4hL9q-1025">
          <mxGeometry relative="1" as="geometry" />
        </mxCell>
        <mxCell id="9zoIfcFEyp8NO1G4hL9q-1040" value="" style="strokeColor=#dddddd;shadow=1;strokeWidth=1;rounded=1;absoluteArcSize=1;arcSize=2;" vertex="1" parent="1">
          <mxGeometry x="350" y="481" width="140" height="60" as="geometry" />
        </mxCell>
        <mxCell id="9zoIfcFEyp8NO1G4hL9q-1041" value="Cloud Load&#xa;Balancing" style="editableCssRules=.*;fontColor=#999999;shape=image;verticalLabelPosition=middle;labelBackgroundColor=#ffffff;verticalAlign=middle;labelPosition=right;align=left;spacingLeft=20;part=1;points=[];imageAspect=0;image=data:image/svg+xml,PHN2ZyB4bWxucz0iaHR0cDovL3d3dy53My5vcmcvMjAwMC9zdmciIHhtbG5zOnY9Imh0dHBzOi8vdmVjdGEuaW8vbmFubyIgd2lkdGg9IjIwIiBoZWlnaHQ9IjIwIiB2aWV3Qm94PSIwIDAgMjAgMjAiPiYjeGE7CTxzdHlsZSB0eXBlPSJ0ZXh0L2NzcyI+JiN4YTsJLnN0MHtmaWxsOiM0Mjg1ZjQ7fSYjeGE7CS5zdDF7ZmlsbDojNjY5ZGY2O30mI3hhOwkuc3Qye2ZpbGw6I2FlY2JmYTt9JiN4YTsJPC9zdHlsZT4mI3hhOwk8cGF0aCBjbGFzcz0ic3QxIiBkPSJNMTYgMTBoMnY0aC0yem0tNyAwaDJ2NEg5em0tNyAwaDJ2NEgyeiIvPiYjeGE7CTxwYXRoIGNsYXNzPSJzdDAiIGQ9Ik05IDVoMnY0SDl6Ii8+JiN4YTsJPHBhdGggY2xhc3M9InN0MSIgZD0iTTIgOWgxNnYySDJ6Ii8+JiN4YTsJPHBhdGggY2xhc3M9InN0MiIgZD0iTTQgMGgxMnY1SDR6Ii8+JiN4YTsJPHBhdGggY2xhc3M9InN0MSIgZD0iTTEwIDBoNnY1aC02eiIvPiYjeGE7CTxwYXRoIGNsYXNzPSJzdDIiIGQ9Ik0xNCAxNGg2djZoLTZ6TTAgMTRoNnY2SDB6Ii8+JiN4YTsJPHBhdGggY2xhc3M9InN0MSIgZD0iTTMgMTRoM3Y2SDN6Ii8+JiN4YTsJPHBhdGggY2xhc3M9InN0MiIgZD0iTTcgMTRoNnY2SDd6Ii8+JiN4YTsJPHBhdGggY2xhc3M9InN0MSIgZD0iTTEwIDE0aDN2NmgtM3ptNyAwaDN2NmgtM3oiLz4mI3hhOzwvc3ZnPg==;" vertex="1" parent="9zoIfcFEyp8NO1G4hL9q-1040">
          <mxGeometry width="30" height="30" relative="1" as="geometry">
            <mxPoint x="15" y="15" as="offset" />
          </mxGeometry>
        </mxCell>
        <mxCell id="9zoIfcFEyp8NO1G4hL9q-1042" value="" style="strokeColor=#dddddd;shadow=1;strokeWidth=1;rounded=1;absoluteArcSize=1;arcSize=2;" vertex="1" parent="1">
          <mxGeometry x="365" y="541" width="110" height="60" as="geometry" />
        </mxCell>
        <mxCell id="9zoIfcFEyp8NO1G4hL9q-1043" value="Cloud&#xa;Armor" style="editableCssRules=.*;fontColor=#999999;shape=image;verticalLabelPosition=middle;labelBackgroundColor=#ffffff;verticalAlign=middle;labelPosition=right;align=left;spacingLeft=20;part=1;points=[];imageAspect=0;image=data:image/svg+xml,PHN2ZyB4bWxucz0iaHR0cDovL3d3dy53My5vcmcvMjAwMC9zdmciIHhtbG5zOnY9Imh0dHBzOi8vdmVjdGEuaW8vbmFubyIgd2lkdGg9IjE2LjUwMDQzNDg3NTQ4ODI4IiBoZWlnaHQ9IjIwIiB2aWV3Qm94PSItMC4wMDAzNjMwODkyNjA2NDUyMTA3NCAxLjE5MjA5Mjg5NTUwNzgxMjVlLTcgMTYuNTAwNDM0ODc1NDg4MjggMjAiPiYjeGE7CTxzdHlsZSB0eXBlPSJ0ZXh0L2NzcyI+JiN4YTsJLnN0MHtmaWxsOiM2NjlkZjY7fSYjeGE7CS5zdDF7ZmlsbDojYWVjYmZhO30mI3hhOwk8L3N0eWxlPiYjeGE7CTxwYXRoIGNsYXNzPSJzdDEiIGQ9Ik0xMC40MiAxMi4wN2wxLjA0IDEuMDUtNS40NSA1LjQ4LTEuMDQtMS4wNXptLS44My00LjE5bDEuMDQgMS4wNS03LjM1IDcuMzktMS4wNC0xLjA1em0tNC4xNi0uODVsMS4wNCAxLjA1LTQuODggNC45LTEuMDQtMS4wNXoiLz4mI3hhOwk8ZyBjbGFzcz0ic3QwIj4mI3hhOwkJPHBhdGggZD0iTTguMjUgMS42MWw2Ljc4IDN2NC41NWE5LjcxIDkuNzEgMCAwIDEtNi43OCA5LjMyIDkuNyA5LjcgMCAwIDEtNi43OC05LjMxVjQuNjNsNi43OC0zbTAtMS42M0wwIDMuNjh2NS40OUExMS4xNyAxMS4xNyAwIDAgMCA4LjEgMjBoLjE1LjE1YTExLjE3IDExLjE3IDAgMCAwIDguMS0xMC43OFYzLjY4eiIvPiYjeGE7CQk8Y2lyY2xlIGN4PSIxMC45NCIgY3k9IjEyLjYyIiByPSIxLjQyIi8+JiN4YTsJCTxjaXJjbGUgY3g9IjEwLjEiIGN5PSI4LjQ1IiByPSIxLjQyIi8+JiN4YTsJCTxjaXJjbGUgY3g9IjUuOTQiIGN5PSI3LjYiIHI9IjEuNDIiLz4mI3hhOwk8L2c+JiN4YTs8L3N2Zz4=;" vertex="1" parent="9zoIfcFEyp8NO1G4hL9q-1042">
          <mxGeometry width="26" height="30" relative="1" as="geometry">
            <mxPoint x="17" y="15" as="offset" />
          </mxGeometry>
        </mxCell>
        <mxCell id="9zoIfcFEyp8NO1G4hL9q-1048" value="load balancing&lt;br&gt;multiple locations" style="text;html=1;strokeColor=none;fillColor=none;align=center;verticalAlign=middle;whiteSpace=wrap;rounded=0;" vertex="1" parent="1">
          <mxGeometry x="475" y="422" width="60" height="30" as="geometry" />
        </mxCell>
        <mxCell id="9zoIfcFEyp8NO1G4hL9q-1052" style="edgeStyle=orthogonalEdgeStyle;rounded=0;orthogonalLoop=1;jettySize=auto;html=1;entryX=0;entryY=0.25;entryDx=0;entryDy=0;strokeColor=#00FF00;strokeWidth=2;" edge="1" parent="1" source="9zoIfcFEyp8NO1G4hL9q-1050" target="9zoIfcFEyp8NO1G4hL9q-1005">
          <mxGeometry relative="1" as="geometry">
            <Array as="points">
              <mxPoint x="536" y="235" />
              <mxPoint x="536" y="301" />
            </Array>
          </mxGeometry>
        </mxCell>
        <mxCell id="9zoIfcFEyp8NO1G4hL9q-1050" value="" style="strokeColor=#00FF00;fillColor=#00FF00;shadow=1;strokeWidth=1;rounded=1;absoluteArcSize=1;arcSize=2;labelPosition=center;verticalLabelPosition=middle;align=center;verticalAlign=bottom;spacingLeft=0;fontColor=#999999;fontSize=12;whiteSpace=wrap;spacingBottom=2;html=1;" vertex="1" parent="1">
          <mxGeometry x="-7" y="200" width="70" height="70" as="geometry" />
        </mxCell>
        <mxCell id="9zoIfcFEyp8NO1G4hL9q-1051" value="" style="dashed=0;connectable=0;html=1;fillColor=#757575;strokeColor=none;shape=mxgraph.gcp2.laptop;part=1;" vertex="1" parent="9zoIfcFEyp8NO1G4hL9q-1050">
          <mxGeometry x="0.5" width="50" height="33" relative="1" as="geometry">
            <mxPoint x="-25" y="18.5" as="offset" />
          </mxGeometry>
        </mxCell>
        <mxCell id="9zoIfcFEyp8NO1G4hL9q-1063" style="edgeStyle=orthogonalEdgeStyle;rounded=0;orthogonalLoop=1;jettySize=auto;html=1;exitX=1;exitY=0.5;exitDx=0;exitDy=0;strokeColor=#4284F3;strokeWidth=2;" edge="1" parent="1" source="9zoIfcFEyp8NO1G4hL9q-1059" target="9zoIfcFEyp8NO1G4hL9q-1040">
          <mxGeometry relative="1" as="geometry" />
        </mxCell>
        <mxCell id="9zoIfcFEyp8NO1G4hL9q-1059" value="" style="strokeColor=#dddddd;shadow=1;strokeWidth=1;rounded=1;absoluteArcSize=1;arcSize=2;fillColor=#FFFFFF;" vertex="1" parent="1">
          <mxGeometry x="178" y="481" width="110" height="60" as="geometry" />
        </mxCell>
        <mxCell id="9zoIfcFEyp8NO1G4hL9q-1060" value="Cloud&#xa;CDN" style="editableCssRules=.*;fontColor=#999999;shape=image;verticalLabelPosition=middle;labelBackgroundColor=#ffffff;verticalAlign=middle;labelPosition=right;align=left;spacingLeft=20;part=1;points=[];imageAspect=0;image=data:image/svg+xml,PHN2ZyB4bWxucz0iaHR0cDovL3d3dy53My5vcmcvMjAwMC9zdmciIHhtbG5zOnY9Imh0dHBzOi8vdmVjdGEuaW8vbmFubyIgd2lkdGg9IjIwIiBoZWlnaHQ9IjIwIiB2aWV3Qm94PSIwIDAgMjAgMjAiPiYjeGE7CTxzdHlsZSB0eXBlPSJ0ZXh0L2NzcyI+JiN4YTsJLnN0MHtmaWxsOiM0Mjg1ZjQ7fSYjeGE7CS5zdDF7ZmlsbDojNjY5ZGY2O30mI3hhOwkuc3Qye2ZpbGw6I2FlY2JmYTt9JiN4YTsJPC9zdHlsZT4mI3hhOwk8cGF0aCBjbGFzcz0ic3QxIiBkPSJNMTMuMTMgNS42M1YzLjIxTDEwIDB2Mi40MXptMy43NSA3LjVMMjAgMTBoLTIuNWwtMy4xMiAzLjEzem0tMTMuNzUgMEwwIDEwaDIuNWwzLjEzIDMuMTN6bTEwIDEuMjV2Mi40MUwxMCAyMHYtMi40MXoiIGZpbGwtcnVsZT0iZXZlbm9kZCIvPiYjeGE7CTxwYXRoIGNsYXNzPSJzdDIiIGQ9Ik02Ljg4IDUuNjNMMTAgMi40MVYwTDYuODggMy4yMXpNMTcuNSAxMEgyMGwtMy4xMi0zLjEyaC0yLjV6bS0xNSAwSDBsMy4xMy0zLjEyaDIuNXptNC4zOCA0LjM4TDEwIDE3LjU5VjIwbC0zLjEyLTMuMjF6bTAtNy41aDYuMjV2Ni4yNUg2Ljg4eiIgZmlsbC1ydWxlPSJldmVub2RkIi8+JiN4YTsJPHBhdGggY2xhc3M9InN0MSIgZD0iTTYuODggMTMuMTNsNi4yNS02LjI1djYuMjV6IiBmaWxsLXJ1bGU9ImV2ZW5vZGQiLz4mI3hhOwk8cGF0aCBjbGFzcz0ic3QwIiBkPSJNMTAgMTBsMy4xMy0zLjEydjYuMjV6IiBmaWxsLXJ1bGU9ImV2ZW5vZGQiLz4mI3hhOzwvc3ZnPg==;strokeColor=#00FF00;fillColor=#00FF00;" vertex="1" parent="9zoIfcFEyp8NO1G4hL9q-1059">
          <mxGeometry width="30" height="30" relative="1" as="geometry">
            <mxPoint x="15" y="15" as="offset" />
          </mxGeometry>
        </mxCell>
        <mxCell id="9zoIfcFEyp8NO1G4hL9q-1064" value="Caching" style="text;html=1;strokeColor=none;fillColor=none;align=center;verticalAlign=middle;whiteSpace=wrap;rounded=0;" vertex="1" parent="1">
          <mxGeometry x="201" y="445" width="60" height="30" as="geometry" />
        </mxCell>
        <mxCell id="9zoIfcFEyp8NO1G4hL9q-1065" value="" style="group" vertex="1" connectable="0" parent="1">
          <mxGeometry x="-23" y="396" width="99" height="230" as="geometry" />
        </mxCell>
        <mxCell id="985" value="" style="strokeColor=#dddddd;fillColor=#ffffff;shadow=1;strokeWidth=1;rounded=1;absoluteArcSize=1;arcSize=2;labelPosition=center;verticalLabelPosition=middle;align=center;verticalAlign=bottom;spacingLeft=0;fontColor=#999999;fontSize=12;whiteSpace=wrap;spacingBottom=2;html=1;container=0;" parent="9zoIfcFEyp8NO1G4hL9q-1065" vertex="1">
          <mxGeometry x="7" width="92" height="228" as="geometry" />
        </mxCell>
        <mxCell id="997" value="Multiple&lt;br&gt;Clients&lt;br&gt;API Requests&lt;br&gt;" style="rounded=1;absoluteArcSize=1;arcSize=2;html=1;strokeColor=none;gradientColor=none;shadow=0;dashed=0;fontSize=12;fontColor=#9E9E9E;align=left;verticalAlign=top;spacing=10;spacingTop=-4;fillColor=#F1F8E9;" parent="9zoIfcFEyp8NO1G4hL9q-1065" vertex="1">
          <mxGeometry x="8" width="90" height="230" as="geometry" />
        </mxCell>
        <mxCell id="986" value="" style="dashed=0;connectable=0;html=1;fillColor=#757575;strokeColor=none;shape=mxgraph.gcp2.mobile_devices;part=1;" parent="9zoIfcFEyp8NO1G4hL9q-1065" vertex="1">
          <mxGeometry x="25" y="69" width="50" height="36.5" as="geometry">
            <mxPoint x="-25" y="16.75" as="offset" />
          </mxGeometry>
        </mxCell>
        <mxCell id="987" value="" style="strokeColor=#dddddd;fillColor=#ffffff;shadow=1;strokeWidth=1;rounded=1;absoluteArcSize=1;arcSize=2;labelPosition=center;verticalLabelPosition=middle;align=center;verticalAlign=bottom;spacingLeft=0;fontColor=#999999;fontSize=12;whiteSpace=wrap;spacingBottom=2;html=1;" parent="9zoIfcFEyp8NO1G4hL9q-1065" vertex="1">
          <mxGeometry x="15" y="138" width="70" height="70" as="geometry" />
        </mxCell>
        <mxCell id="988" value="" style="dashed=0;connectable=0;html=1;fillColor=#757575;strokeColor=none;shape=mxgraph.gcp2.laptop;part=1;" parent="987" vertex="1">
          <mxGeometry x="0.5" width="50" height="33" relative="1" as="geometry">
            <mxPoint x="-25" y="18.5" as="offset" />
          </mxGeometry>
        </mxCell>
      </root>
    </mxGraphModel>
  </diagram>
</mxfile>
